# xmcd
#
# Track frame offsets:
#	150
#	14265
#	25541
#	38714
#	56728
#	70931
#	82810
#	97160
#	114223
#	126795
#	139061
#	150843
#	167897
#	183311
#
# Disc length: 2611 seconds
#
# Revision: 1
# Processed by: cddbd v1.5.2PL0 Copyright (c) Steve Scherf et al.
# Submitted via: audiograbber 1.83.01
#
DISCID=a70a310e
DTITLE=Dapper Dan Men - Somebody Touched Me
DYEAR=2010
DGENRE=Bluegrass
TTITLE0=Blow Big Wind
TTITLE1=There's A Time
TTITLE2=Folsom Prison Blues
TTITLE3=Alone And Forsaken
TTITLE4=Emerald's Breakdown
TTITLE5=Setting The Woods On Fire
TTITLE6=So Bad
TTITLE7=Creep On In
TTITLE8=Dusty Miller
TTITLE9=High And Lonesome Sound
TTITLE10=Barefoot Dance
TTITLE11=Rocky Top
TTITLE12=I'm So Lonesome
TTITLE13=Somebody Touched Me
EXTD=
EXTT0=
EXTT1=
EXTT2=
EXTT3=
EXTT4=
EXTT5=
EXTT6=
EXTT7=
EXTT8=
EXTT9=
EXTT10=
EXTT11=
EXTT12=
EXTT13=
PLAYORDER=
